<svg version="1.1" xmlns="http://www.w3.org/2000/svg" xmlns:xlink="http://www.w3.org/1999/xlink" x="0px" y="0px" viewBox="0 0 64 64" xml:space="preserve" width="64" height="64"><g class="nc-icon-wrapper" fill="#000000"><path fill="#000000" d="M61,9H3c-1.105,0-2,0.895-2,2v42c0,1.105,0.895,2,2,2h58c1.105,0,2-0.895,2-2V11C63,9.895,62.105,9,61,9z M18.781,34.625l-8,10C10.583,44.871,10.293,45,9.999,45c-0.219,0-0.439-0.071-0.624-0.219c-0.431-0.346-0.501-0.975-0.156-1.406 l8-10c0.346-0.429,0.975-0.502,1.406-0.156C19.056,33.564,19.126,34.193,18.781,34.625z M54.625,44.781 C54.44,44.929,54.22,45,54.001,45c-0.294,0-0.584-0.128-0.782-0.375l-8-10c-0.345-0.432-0.274-1.061,0.156-1.406 c0.433-0.346,1.061-0.274,1.406,0.156l8,10C55.126,43.807,55.056,44.436,54.625,44.781z M54.633,18.774l-22,18 C32.449,36.925,32.225,37,32,37s-0.449-0.075-0.633-0.226l-22-18c-0.428-0.351-0.491-0.98-0.142-1.407 c0.351-0.428,0.979-0.49,1.407-0.142L32,34.708l21.367-17.482c0.427-0.349,1.057-0.287,1.407,0.142 C55.124,17.794,55.061,18.424,54.633,18.774z"></path></g></svg>