<svg version="1.1" xmlns="http://www.w3.org/2000/svg" xmlns:xlink="http://www.w3.org/1999/xlink" x="0px" y="0px" viewBox="0 0 64 64" xml:space="preserve" width="64" height="64"><g class="nc-icon-wrapper" fill="#454545"><path d="M62,0H2A2,2,0,0,0,0,2V62a2,2,0,0,0,2,2H62a2,2,0,0,0,2-2V2A2,2,0,0,0,62,0ZM53.169,15.163l-3.432,3.291a1,1,0,0,0-.381.963V43.6a1,1,0,0,0,.381.963l3.352,3.291v.722H36.228v-.722L39.7,44.481c.341-.341.341-.441.341-.963V23.973L30.387,48.494h-1.3L17.842,23.973V40.407a2.267,2.267,0,0,0,.622,1.886l4.516,5.478v.722H10.174v-.722l4.516-5.478a2.187,2.187,0,0,0,.582-1.886v-19a1.665,1.665,0,0,0-.542-1.4l-4.014-4.836v-.722H23.181l9.635,21.13,8.471-21.13H53.169Z" fill="#454545"></path> </g></svg>